<svg xmlns="http://www.w3.org/2000/svg" version="1.1" viewBox="-5.0 -10.0 110.0 135.0">
 <path d="m82.914 84.598h-65.828c-2.8516 0-5.1719-2.3203-5.1719-5.1719v-36.043c0-2.8516 2.3203-5.1719 5.1719-5.1719h17.926l1.6367-4.6289c0.59766-1.6836 2.1992-2.8164 3.9844-2.8164h18.723c1.7852 0 3.3867 1.1328 3.9844 2.8164l1.6367 4.6289h17.926c2.8516 0 5.1719 2.3203 5.1719 5.1719v36.043c0 2.8516-2.3203 5.1719-5.1719 5.1719zm-65.828-44.441c-1.7773 0-3.2188 1.4453-3.2188 3.2188v36.043c0 1.7773 1.4453 3.2188 3.2188 3.2188h65.824c1.7773 0 3.2188-1.4453 3.2188-3.2188v-36.043c0-1.7773-1.4453-3.2188-3.2188-3.2188h-18.617c-0.41406 0-0.78125-0.26172-0.92188-0.65234l-1.8672-5.2773c-0.32031-0.90625-1.1836-1.5156-2.1445-1.5156h-18.723c-0.96094 0-1.8203 0.60937-2.1445 1.5156l-1.8672 5.2773c-0.13672 0.39062-0.50781 0.65234-0.92188 0.65234z"/>
 <path d="m28.48 40.156h-6.0508c-0.53906 0-0.97656-0.4375-0.97656-0.97656v-4.6523c0-0.53906 0.4375-0.97656 0.97656-0.97656h6.0508c0.53906 0 0.97656 0.4375 0.97656 0.97656v4.6523c0 0.53906-0.4375 0.97656-0.97656 0.97656zm-5.0742-1.9531h4.0977v-2.6992h-4.0977z"/>
 <path d="m80.438 40.156h-10.703c-0.53906 0-0.97656-0.4375-0.97656-0.97656v-4.6523c0-0.53906 0.4375-0.97656 0.97656-0.97656h10.703c0.53906 0 0.97656 0.4375 0.97656 0.97656v4.6523c0 0.53906-0.4375 0.97656-0.97656 0.97656zm-9.7266-1.9531h8.75v-2.6992h-8.75z"/>
 <path d="m21.266 79.941c-2.0781 0-3.7695-1.6914-3.7695-3.7695 0-0.53906 0.4375-0.97656 0.97656-0.97656 0.53906 0 0.97656 0.4375 0.97656 0.97656 0 1 0.8125 1.8164 1.8164 1.8164 1 0 1.8164-0.8125 1.8164-1.8164 0-0.84375-0.59766-1.5898-1.418-1.7734-0.52734-0.11719-0.85937-0.64063-0.74219-1.1641 0.11719-0.52734 0.64062-0.85938 1.1641-0.74219 1.707 0.37891 2.9492 1.9258 2.9492 3.6797 0 2.0781-1.6914 3.7695-3.7695 3.7695z"/>
 <path d="m50 26.895c-0.53906 0-0.97656-0.4375-0.97656-0.97656v-3.0234c0-0.53906 0.4375-0.97656 0.97656-0.97656s0.97656 0.4375 0.97656 0.97656v3.0234c0 0.53906-0.4375 0.97656-0.97656 0.97656z"/>
 <path d="m59.66 21.527c-0.19922 0-0.39844-0.0625-0.57422-0.1875-0.4375-0.31641-0.53516-0.92578-0.21875-1.3633l3.0234-4.1719c0.31641-0.4375 0.92578-0.53516 1.3633-0.21875 0.4375 0.31641 0.53516 0.92578 0.21875 1.3633l-3.0234 4.1719c-0.19141 0.26172-0.48828 0.40234-0.79297 0.40234z"/>
 <path d="m55.938 26.664c-0.19922 0-0.39844-0.0625-0.57422-0.1875-0.4375-0.31641-0.53516-0.92578-0.21875-1.3633l1.0117-1.3945c0.31641-0.4375 0.92578-0.53516 1.3633-0.21875s0.53516 0.92578 0.21875 1.3633l-1.0117 1.3945c-0.19141 0.26172-0.48828 0.40234-0.79297 0.40234z"/>
 <path d="m40.34 21.527c-0.30078 0-0.60156-0.14062-0.79297-0.40234l-3.0234-4.1719c-0.31641-0.4375-0.21875-1.0469 0.21875-1.3633s1.0469-0.21875 1.3633 0.21875l3.0234 4.1719c0.31641 0.4375 0.21875 1.0469-0.21875 1.3633-0.17188 0.125-0.375 0.1875-0.57422 0.1875z"/>
 <path d="m44.062 26.664c-0.30078 0-0.60156-0.14062-0.79297-0.40234l-1.0117-1.3945c-0.31641-0.4375-0.21875-1.0469 0.21875-1.3633s1.0469-0.21875 1.3633 0.21875l1.0117 1.3945c0.31641 0.4375 0.21875 1.0469-0.21875 1.3633-0.17187 0.125-0.375 0.1875-0.57422 0.1875z"/>
 <path d="m67.492 30.414c-0.49219 0-0.90625-0.36719-0.96875-0.85547-0.097657-0.79688-0.44922-1.5195-1.0117-2.0977-0.375-0.38672-0.37109-1.0039 0.015625-1.3828 0.38672-0.375 1.0039-0.37109 1.3828 0.015625 0.21484 0.21875 0.40625 0.45312 0.58203 0.70312 0.375-0.53906 0.84375-1.0078 1.3828-1.3828-0.20703-0.14453-0.40625-0.30469-0.59375-0.48047-0.39453-0.36719-0.41797-0.98438-0.054688-1.3789 0.36719-0.39453 0.98438-0.41797 1.3789-0.054688 0.56641 0.52344 1.2656 0.85156 2.0234 0.94531 0.48828 0.0625 0.85547 0.47656 0.85547 0.96875 0 0.49219-0.36719 0.90625-0.85547 0.96875-1.6602 0.20703-2.9609 1.5117-3.168 3.1719-0.0625 0.48828-0.47656 0.85547-0.96875 0.85547z"/>
 <path d="m31.832 30.785c-0.53906 0-0.97656-0.4375-0.97656-0.97656v-5.4062c0-0.53906 0.4375-0.97656 0.97656-0.97656 0.53906 0 0.97656 0.4375 0.97656 0.97656v5.4062c0 0.53906-0.4375 0.97656-0.97656 0.97656z"/>
 <path d="m34.535 28.082h-5.4062c-0.53906 0-0.97656-0.4375-0.97656-0.97656 0-0.53906 0.4375-0.97656 0.97656-0.97656h5.4062c0.53906 0 0.97656 0.4375 0.97656 0.97656 0 0.53906-0.4375 0.97656-0.97656 0.97656z"/>
 <path d="m87.109 53.652h-4.2969c-0.53906 0-0.97656-0.4375-0.97656-0.97656 0-0.53906 0.4375-0.97656 0.97656-0.97656h3.3203v-8.3203c0-1.7773-1.4453-3.2188-3.2188-3.2188h-18.617c-0.41406 0-0.78125-0.26172-0.92188-0.65234l-1.8672-5.2812c-0.32031-0.90625-1.1836-1.5156-2.1445-1.5156h-18.723c-0.96094 0-1.8203 0.60937-2.1445 1.5156l-1.8672 5.2773c-0.13672 0.39062-0.50781 0.65234-0.92188 0.65234h-18.617c-1.7773 0-3.2188 1.4453-3.2188 3.2188v8.3203h18.891c0.53906 0 0.97656 0.4375 0.97656 0.97656s-0.4375 0.97656-0.97656 0.97656h-19.867c-0.53906 0-0.97656-0.4375-0.97656-0.97656v-9.2969c0-2.8516 2.3203-5.1719 5.1719-5.1719h17.926l1.6406-4.6289c0.59766-1.6836 2.1992-2.8164 3.9844-2.8164h18.723c1.7852 0 3.3867 1.1328 3.9844 2.8164l1.6406 4.6289h17.926c2.8516 0 5.1719 2.3203 5.1719 5.1719v9.2969c0 0.53906-0.4375 0.97656-0.97656 0.97656z"/>
 <path d="m77.93 53.652h-10.688c-0.53906 0-0.97656-0.4375-0.97656-0.97656 0-0.53906 0.4375-0.97656 0.97656-0.97656h10.688c0.53906 0 0.97656 0.4375 0.97656 0.97656 0 0.53906-0.4375 0.97656-0.97656 0.97656z"/>
 <path d="m50 79.711c-10.867 0-19.707-8.8398-19.707-19.707 0-10.867 8.8398-19.707 19.707-19.707s19.707 8.8398 19.707 19.707c0 5.7539-2.5039 11.203-6.875 14.957-0.41016 0.35156-1.0273 0.30469-1.3789-0.10547-0.35156-0.41016-0.30469-1.0273 0.10547-1.3789 3.9336-3.3789 6.1914-8.2891 6.1914-13.473 0-9.7891-7.9648-17.754-17.754-17.754-9.7891 0-17.754 7.9648-17.754 17.754 0 9.7891 7.9648 17.754 17.754 17.754 2.375 0 4.6797-0.46094 6.8477-1.3711 0.49609-0.20703 1.0703 0.027343 1.2773 0.52344 0.20703 0.49609-0.027344 1.0703-0.52344 1.2773-2.4102 1.0078-4.9688 1.5195-7.6055 1.5195z"/>
 <path d="m41.406 50.359c-0.28516 0-0.56641-0.125-0.75781-0.36328-0.33984-0.41797-0.27344-1.0352 0.14453-1.375 0.46484-0.375 0.95703-0.72656 1.4648-1.043 0.45703-0.28516 1.0586-0.14844 1.3438 0.3125 0.28516 0.45703 0.14844 1.0586-0.3125 1.3438-0.4375 0.27344-0.86719 0.57812-1.2695 0.90625-0.17969 0.14844-0.39844 0.21875-0.61328 0.21875z"/>
 <path d="m50 74.641c-8.0703 0-14.637-6.5664-14.637-14.637 0-2.5117 0.64844-4.9883 1.8711-7.1641 0.26562-0.46875 0.85938-0.63672 1.3281-0.37109s0.63672 0.85938 0.37109 1.3281c-1.0586 1.8828-1.6172 4.0312-1.6172 6.207 0 6.9961 5.6914 12.684 12.684 12.684 6.9961 0 12.684-5.6914 12.684-12.684 0-6.9961-5.6914-12.684-12.684-12.684-0.61328 0-1.2305 0.042969-1.832 0.13281-0.53516 0.078125-1.0273-0.29297-1.1055-0.82812s0.29297-1.0273 0.82812-1.1055c0.69531-0.10156 1.4062-0.15234 2.1094-0.15234 8.0703 0 14.637 6.5664 14.637 14.637 0 8.0703-6.5664 14.637-14.637 14.637z"/>
<text x="0.0" y="117.5" font-size="5.0" font-weight="bold" font-family="Arbeit Regular, Helvetica, Arial-Unicode, Arial, Sans-serif" fill="#000000">Created by Sinaelgi Aziz</text><text x="0.0" y="122.5" font-size="5.0" font-weight="bold" font-family="Arbeit Regular, Helvetica, Arial-Unicode, Arial, Sans-serif" fill="#000000">from Noun Project</text></svg>