<svg xmlns="http://www.w3.org/2000/svg" data-name="ICON Black" viewBox="0 0 32 40" x="0px" y="0px"><title>Cleaning service</title><path d="M29.5,20.606V18.759a1.5,1.5,0,0,0-1.5-1.5H22.873V9.27a2,2,0,0,0-2-2h-.745a2,2,0,0,0-2,2v7.989H13a1.5,1.5,0,0,0-1.5,1.5v1.847a1.5,1.5,0,0,0,.932,1.387L11.9,28.962a.509.509,0,0,0,.132.378.5.5,0,0,0,.367.16H28.6a.5.5,0,0,0,.367-.16.509.509,0,0,0,.132-.378l-.533-6.969A1.5,1.5,0,0,0,29.5,20.606ZM19.13,9.27a1,1,0,0,1,1-1h.745a1,1,0,0,1,1,1v7.989H19.13ZM12.5,18.759a.5.5,0,0,1,.5-.5H28a.5.5,0,0,1,.5.5v1.847a.5.5,0,0,1-.5.5H13a.5.5,0,0,1-.5-.5Zm.439,9.741.488-6.394h2.735l-.133,2.986a.5.5,0,0,0,.477.522h.022a.5.5,0,0,0,.5-.478l.135-3.031H20V23.36a.5.5,0,0,0,1,0V22.106h2.836l.135,3.031a.5.5,0,0,0,.5.478h.022a.5.5,0,0,0,.477-.522l-.133-2.986h2.735l.489,6.394ZM5,19.069l2.946-3.911a1.509,1.509,0,0,1,1.2-.6h4.1a.5.5,0,0,1,.5.5V16a.5.5,0,0,0,1,0v-.94a1.5,1.5,0,0,0-1.437-1.494V11.973a1.5,1.5,0,0,0,1.438-1.494V8.458a1.5,1.5,0,0,0-1.5-1.5H8.376A1.5,1.5,0,0,0,6.929,8.083H5.406a1.386,1.386,0,0,0,0,2.771H6.929a1.482,1.482,0,0,0,.306.587L5.6,13.772a.5.5,0,0,0,.122.7.491.491,0,0,0,.287.091.5.5,0,0,0,.409-.212l1.683-2.4a1.487,1.487,0,0,0,.277.028h2.1V13.56H9.147a2.515,2.515,0,0,0-2,1L4.2,18.468a3.52,3.52,0,0,0-.7,2.105V28A1.5,1.5,0,0,0,5,29.5h5.469a.5.5,0,1,0,0-1H5a.5.5,0,0,1-.5-.5V20.573A2.519,2.519,0,0,1,5,19.069ZM7.876,8.458a.5.5,0,0,1,.5-.5h4.875a.5.5,0,0,1,.5.5v2.021a.5.5,0,0,1-.5.5H8.376a.5.5,0,0,1-.5-.5V8.458ZM5.021,9.469a.385.385,0,0,1,.385-.386h1.47v.771H5.406A.385.385,0,0,1,5.021,9.469Zm6.458,2.51h.834V13.56h-.834Z"/><text x="0" y="47" fill="#000000" font-size="5px" font-weight="bold" font-family="'Helvetica Neue', Helvetica, Arial-Unicode, Arial, Sans-serif">Created by Philipp Petzka</text><text x="0" y="52" fill="#000000" font-size="5px" font-weight="bold" font-family="'Helvetica Neue', Helvetica, Arial-Unicode, Arial, Sans-serif">from the Noun Project</text></svg>