<svg xmlns="http://www.w3.org/2000/svg" version="1.1" viewBox="-5.0 -10.0 110.0 135.0">
 <path d="m23.438 78.125c-2.5859 0-4.6875 2.1016-4.6875 4.6875s2.1016 4.6875 4.6875 4.6875 4.6875-2.1016 4.6875-4.6875-2.1016-4.6875-4.6875-4.6875zm0 6.25c-0.86328 0-1.5625-0.69922-1.5625-1.5625s0.69922-1.5625 1.5625-1.5625 1.5625 0.69922 1.5625 1.5625-0.69922 1.5625-1.5625 1.5625zm53.125-6.25c-2.5859 0-4.6875 2.1016-4.6875 4.6875s2.1016 4.6875 4.6875 4.6875 4.6875-2.1016 4.6875-4.6875-2.1016-4.6875-4.6875-4.6875zm0 6.25c-0.86328 0-1.5625-0.69922-1.5625-1.5625s0.69922-1.5625 1.5625-1.5625 1.5625 0.69922 1.5625 1.5625-0.69922 1.5625-1.5625 1.5625zm-24.543-34.832c0.60938 0.60938 1.5977 0.60938 2.2109 0l0.45703-0.45703v10.289h-6.25c-0.86328 0-1.5625 0.69922-1.5625 1.5625v6.25c0 0.86328 0.69922 1.5625 1.5625 1.5625h40.625c0.86328 0 1.5625-0.69922 1.5625-1.5625v-6.25c0-0.86328-0.69922-1.5625-1.5625-1.5625h-6.25v-10.289l0.45703 0.45703c0.30469 0.30469 0.70312 0.45703 1.1055 0.45703 0.39844 0 0.80078-0.15234 1.1055-0.45703l4.6875-4.6875c0.60938-0.60938 0.60938-1.5977 0-2.2109l-20.312-20.312c-0.60938-0.60938-1.5977-0.60938-2.2109 0l-20.312 20.312c-0.60938 0.60938-0.60938 1.5977 0 2.2109zm35.48 16.082h-37.5v-3.125h37.5zm-14.062-6.25h-9.375v-7.8125c0-2.5859 2.1016-4.6875 4.6875-4.6875s4.6875 2.1016 4.6875 4.6875zm6.25 0h-3.125v-7.8125c0-4.3086-3.5039-7.8125-7.8125-7.8125s-7.8125 3.5039-7.8125 7.8125v7.8125h-3.125v-13.414l10.938-10.938 10.938 10.938zm-10.938-33.727 18.102 18.102-2.4766 2.4766-14.52-14.52c-0.30469-0.30469-0.70703-0.45703-1.1055-0.45703s-0.80078 0.15234-1.1055 0.45703l-14.52 14.52-2.4766-2.4766zm17.188-19.398h-34.375c-6.0312 0-10.938 4.9062-10.938 10.938v17.188h-6.8164c-5.9258 0-11.25 3.75-13.242 9.332l-4.1094 11.504c-0.22266 0.62109-0.8125 1.0391-1.4727 1.0391h-4.0469c-4.3086 0-7.8125 3.5039-7.8125 7.8125v18.75c0 0.86328 0.69922 1.5625 1.5625 1.5625h7.9258c0.76172 5.293 5.3242 9.375 10.824 9.375s10.062-4.082 10.824-9.375h31.477c0.76172 5.293 5.3242 9.375 10.824 9.375s10.062-4.082 10.824-9.375h7.9258c0.86328 0 1.5625-0.69922 1.5625-1.5625v-65.625c0-6.0312-4.9062-10.938-10.938-10.938zm-34.375 3.125h34.375c3.7734 0 6.9297 2.6875 7.6562 6.25h-49.688c0.72656-3.5625 3.8828-6.25 7.6562-6.25zm42.188 65.625h-9.543c-1.9727-1.9297-4.6719-3.125-7.6445-3.125s-5.6719 1.1953-7.6445 3.125h-25.168v-56.25h50zm-70.312-15.625h17.188v3.125h-4.6875c-0.86328 0-1.5625 0.69922-1.5625 1.5625s0.69922 1.5625 1.5625 1.5625h4.6875v9.375h-9.543c-1.9727-1.9297-4.6719-3.125-7.6445-3.125-0.53125 0-1.0508 0.039062-1.5625 0.11328v-11.051c0-0.86328 0.69922-1.5625 1.5625-1.5625zm17.188-3.125h-6.25v-4.6875c0-0.86328-0.69922-1.5625-1.5625-1.5625h-5.3984l0.87109-2.9102c0.59766-1.9961 2.4023-3.3398 4.4883-3.3398h7.8516zm-14.148-3.125h4.7734v3.125h-5.7109zm6.8398 25h33.363c-0.46094 0.97266-0.78516 2.0234-0.94531 3.125h-31.473c-0.16016-1.1016-0.48047-2.1523-0.94531-3.125zm-13.918-21.859 4.1094-11.504c1.5508-4.3438 5.6914-7.2617 10.301-7.2617h6.8164v3.125h-7.8516c-3.4766 0-6.4844 2.2383-7.4844 5.5664l-3.0664 10.215c-1.9961 0.53906-3.4727 2.3633-3.4727 4.5312v11.996c-1.0977 0.52344-2.0977 1.2266-2.957 2.0664h-9.543v-6.25h4.6875c2.5859 0 4.6875-2.1016 4.6875-4.6875v-4.7344c1.7109-0.23828 3.1836-1.4062 3.7734-3.0625zm-8.4609 3.1094h1.5625v4.6875c0 0.86328-0.69922 1.5625-1.5625 1.5625h-4.6875v-1.5625c0-2.5859 2.1016-4.6875 4.6875-4.6875zm-4.6875 18.75h7.3086c-0.46094 0.97266-0.78516 2.0234-0.94531 3.125h-6.3633zm17.188 12.5c-4.3086 0-7.8125-3.5039-7.8125-7.8125s3.5039-7.8125 7.8125-7.8125 7.8125 3.5039 7.8125 7.8125-3.5039 7.8125-7.8125 7.8125zm53.125 0c-4.3086 0-7.8125-3.5039-7.8125-7.8125s3.5039-7.8125 7.8125-7.8125 7.8125 3.5039 7.8125 7.8125-3.5039 7.8125-7.8125 7.8125zm17.188-9.375h-6.3633c-0.16016-1.1016-0.48047-2.1523-0.94531-3.125h7.3086z"/>
<text x="0.0" y="117.5" font-size="5.0" font-weight="bold" font-family="Arbeit Regular, Helvetica, Arial-Unicode, Arial, Sans-serif" fill="#000000">Created by iconixar</text><text x="0.0" y="122.5" font-size="5.0" font-weight="bold" font-family="Arbeit Regular, Helvetica, Arial-Unicode, Arial, Sans-serif" fill="#000000">from Noun Project</text></svg>