<svg xmlns="http://www.w3.org/2000/svg" version="1.1" viewBox="-5.0 -10.0 110.0 135.0">
 <path d="m82.434 34.676h2.125c8.5117 0 15.441-6.9258 15.441-15.441 0-8.5117-6.9258-15.438-15.441-15.438h-39.953c-0.86328 0-1.5625 0.69922-1.5625 1.5625v2.6836h-7.8945c-0.86328 0-1.5625 0.69922-1.5625 1.5625v1.9922h-7.8945c-0.86328 0-1.5625 0.69922-1.5625 1.5625v1.9922h-7.8945c-0.86328 0-1.5625 0.69922-1.5625 1.5625v0.95703h-7.8945c-0.22656 0-0.45312 0.050781-0.66016 0.14453l-5.2109 2.4297c-0.55078 0.25781-0.90625 0.80859-0.90625 1.418 0 0.60938 0.35156 1.1602 0.90625 1.418l5.2188 2.4258c0.20703 0.097657 0.43359 0.14453 0.66016 0.14453h7.8945v0.95703c0 0.86328 0.69922 1.5625 1.5625 1.5625h7.8945v1.9922c0 0.86328 0.69922 1.5625 1.5625 1.5625h7.8945v1.9922c0 0.86328 0.69922 1.5625 1.5625 1.5625h7.8945v2.6836c0 0.86328 0.69922 1.5625 1.5625 1.5625h6.3203v6.375c0 1.5273 1.2422 2.7695 2.7695 2.7695h4.3125l3.0469 13.316h-2.6172c-4.8125 0-8.7227 3.9141-8.7227 8.7227v3.6016h-2.5781c-6.0352 0-10.945 4.9102-10.945 10.945 0 6.0352 4.9102 10.945 10.945 10.945h36.516c6.0352 0 10.945-4.9102 10.945-10.945 0-3.418-1.5781-6.4727-4.043-8.4844v-6.0625c0-4.6484-3.6602-8.4492-8.2461-8.6992 1.25-7.8945-0.87891-13.965-2.9883-17.758-1.4531-2.6133-0.95703-5.8359 1.2109-7.832l1.9023-1.7539zm14.438-15.441c0 6.7891-5.5234 12.312-12.312 12.312h-25.906v-24.625h25.906c6.7891 0 12.312 5.5234 12.312 12.312zm-89.742 3.2891-1.8555-0.86328 1.8555-0.86328h7.5469v1.7266zm10.676 2.5195v-6.7617h6.3281v6.7617zm9.4531 3.5547v-13.875h6.3281v13.875zm9.457 3.5586v-20.988h6.3281v20.984h-6.3281zm9.457-25.234h9.3555v26.191c0 0.007813 0.003906 0.015625 0.003906 0.023438v3.2656h-9.3594zm7.8828 32.605h4.4375v6.0195h-4.4375zm6.9297 8.125c0.39062-0.47656 0.63672-1.082 0.63672-1.7461v-6.7344c0-1.5273-1.2422-2.7695-2.7695-2.7695h-0.17187l-0.011719-1.7266h8.2891c-0.37109 4.1289-0.82422 13.93 2.6445 17.977 0.67969 0.79297 1.4961 1.3516 2.4023 1.6562v7.6875h-7.7383l-3.2812-14.34zm30.484 37.609c0 4.3086-3.5078 7.8164-7.8164 7.8164h-36.516c-4.3086 0-7.8164-3.5078-7.8164-7.8164 0-4.3086 3.5078-7.8164 7.8164-7.8164h36.516c4.3086 0 7.8164 3.5078 7.8164 7.8164zm-4.043-14.547v4.2852c-1.1797-0.43359-2.4453-0.6875-3.7734-0.6875h-30.809v-3.6016c0-3.0859 2.5117-5.5977 5.5977-5.5977h23.391c3.0859 0 5.5977 2.5117 5.5977 5.5977zm-8.3164-8.7227h-3.9805v-8.9844c0-0.84766-0.67578-1.5391-1.5234-1.5625-0.64453-0.015624-1.1641-0.28125-1.6328-0.82812-2.5039-2.9219-2.2852-11.516-1.875-15.941h7.8125c-2.7812 2.9961-3.3594 7.4414-1.3242 11.105 1.9023 3.4219 3.7891 8.9688 2.5234 16.211z"/>
 <path d="m67.605 26.148c3.0312 0 5.5625-2.1016 6.2695-4.918h10.625v4.9414c0 0.86328 0.69922 1.5625 1.5625 1.5625s1.5625-0.69922 1.5625-1.5625v-12.559c0-0.86328-0.69922-1.5625-1.5625-1.5625s-1.5625 0.69922-1.5625 1.5625v4.4883h-10.625c-0.70312-2.8164-3.2383-4.918-6.2695-4.918-3.5742 0-6.4805 2.9062-6.4805 6.4805 0 3.5742 2.9062 6.4805 6.4805 6.4805zm0-9.8359c1.8477 0 3.3555 1.5039 3.3555 3.3555 0 1.8477-1.5039 3.3516-3.3555 3.3516-1.8477 0-3.3516-1.5039-3.3516-3.3516 0-1.8477 1.5039-3.3555 3.3516-3.3555z"/>
 <path d="m47.574 80.422c-2.668 0-4.8398 2.1719-4.8398 4.8398s2.1719 4.8398 4.8398 4.8398 4.8398-2.1719 4.8398-4.8398-2.1719-4.8398-4.8398-4.8398zm0 6.5508c-0.94531 0-1.7109-0.76953-1.7109-1.7109 0-0.94141 0.76953-1.7148 1.7109-1.7148 0.94531 0 1.7109 0.76953 1.7109 1.7148 0 0.94531-0.76953 1.7109-1.7109 1.7109z"/>
 <path d="m83.453 80.422c-2.668 0-4.8398 2.1719-4.8398 4.8398s2.1719 4.8398 4.8398 4.8398 4.8398-2.1719 4.8398-4.8398-2.1719-4.8398-4.8398-4.8398zm0 6.5508c-0.94531 0-1.7109-0.76953-1.7109-1.7109 0-0.94141 0.76953-1.7148 1.7109-1.7148 0.94531 0 1.7109 0.76953 1.7109 1.7148 0 0.94531-0.76953 1.7109-1.7109 1.7109z"/>
<text x="0.0" y="117.5" font-size="5.0" font-weight="bold" font-family="Arbeit Regular, Helvetica, Arial-Unicode, Arial, Sans-serif" fill="#000000">Created by Zulfa Husein</text><text x="0.0" y="122.5" font-size="5.0" font-weight="bold" font-family="Arbeit Regular, Helvetica, Arial-Unicode, Arial, Sans-serif" fill="#000000">from Noun Project</text></svg>