<svg xmlns="http://www.w3.org/2000/svg" version="1.1" viewBox="-5.0 -10.0 110.0 135.0">
 <path d="m90.742 18.754c0.375-0.59375 0.68359-1.2344 0.92187-1.9102 0.82422-2.3633 0.67969-4.9102-0.41016-7.1641l-1.3594-2.8125c-1.5547-3.2227-4.8711-5.3047-8.4492-5.3047-1.418 0-2.7852 0.3125-4.0703 0.93359-4.6562 2.2461-6.6133 7.8633-4.3672 12.52l1.3594 2.8125c1.1406 2.3672 3.2344 4.1172 5.6875 4.8789-2.1094 1.7539-4.0664 3.6953-5.1992 4.8633l-14.504-11.602c-0.27734-0.22266-0.62109-0.34375-0.97656-0.34375h-4.6875c-0.52344 0-1.0117 0.26172-1.3008 0.69531l-3.125 4.6875c-0.26953 0.40625-0.33594 0.91406-0.17969 1.375 0.15625 0.46094 0.52344 0.82031 0.98438 0.97656l1.6016 0.53516-1.5391 7.3789c-1.6406 0.14844-3.0391 1.1484-3.75 2.5508l-19.312-2.3438c-0.47656-0.058594-0.95312 0.10547-1.293 0.44531l-4.9453 4.9375c-0.42969 0.42969-0.57031 1.0664-0.36719 1.6367 0.10937 0.30078 0.30469 0.55078 0.55078 0.73047-2.7578 0.64062-4.8242 3.125-4.8242 6.082 0 0.75781 0.13672 1.5 0.39844 2.1953-2.0898 1.0195-3.5234 3.1719-3.5234 5.6172 0 0.17969 0.011719 0.35547 0.023438 0.53125-0.38281 0.42969-0.70703 0.91406-0.95703 1.4297-0.69141-0.26172-1.4336-0.39844-2.1914-0.39844-3.4453 0-6.25 2.8047-6.25 6.25 0 0.75781 0.13672 1.5 0.39844 2.1953-2.0898 1.0195-3.5234 3.1719-3.5234 5.6172 0 2.2852 1.25 4.3516 3.1758 5.4414-0.035156 0.26562-0.050781 0.53516-0.050781 0.80859 0 3.4453 2.8047 6.25 6.25 6.25 0.75781 0 1.5-0.13672 2.1953-0.39844 1.0195 2.0898 3.1719 3.5234 5.6172 3.5234s4.5977-1.4336 5.6172-3.5234c0.69531 0.26172 1.4414 0.38672 2.1953 0.39063v12.508c0 0.86328-0.69922 1.5625-1.5625 1.5625s-1.5625 0.69922-1.5625 1.5625 0.69922 1.5625 1.5625 1.5625h12.5c0.86328 0 1.5625-0.69922 1.5625-1.5625s-0.69922-1.5625-1.5625-1.5625-1.5625-0.69922-1.5625-1.5625v-11.852l4.1406-4.1406c0.66016 0.23828 1.3672 0.36719 2.1094 0.36719 0.75781 0 1.5-0.13672 2.1953-0.39844 1.0195 2.0898 3.1719 3.5234 5.6172 3.5234s4.5977-1.4336 5.6172-3.5234c0.69531 0.26172 1.4375 0.39844 2.1953 0.39844 3.4453 0 6.25-2.8047 6.25-6.25 0-0.27344-0.015625-0.54297-0.050781-0.80859 1.9258-1.0898 3.1758-3.1562 3.1758-5.4414 0-2.4453-1.4336-4.5977-3.5234-5.6172 0.26172-0.69531 0.39844-1.4375 0.39844-2.1953 0-3.4453-2.8047-6.25-6.25-6.25-0.75781 0-1.5 0.13672-2.1953 0.39844-0.91797-1.875-2.7461-3.2188-4.8789-3.4727l1.6523-7.9375c1.4922-0.26953 2.7383-1.2422 3.3828-2.5625l6.7461 0.82031c-0.011719 0.082031-0.019531 0.16797-0.019531 0.25391v1.5625c0 0.67188 0.42969 1.2695 1.0703 1.4844 0 0 13.125 3.0703 17.68 3.832v25.934c0 0.074219 0.003906 0.14844 0.015625 0.22266l2.9844 20.898-3.8672 2.5781c-0.57422 0.38281-0.82812 1.0938-0.62891 1.7539 0.19922 0.66016 0.80859 1.1094 1.4961 1.1094h10.938c0.86328 0 1.5625-0.69922 1.5625-1.5625v-24.711c0.81641-2.1367 4.6875-12.465 4.6875-15.914v-29.688c0-4.2695-3.4414-7.7461-7.6953-7.8086zm-8.1758 17.184c0.082032-0.054688 0.16406-0.10547 0.24609-0.15625v0.15625zm0.60938-11.727c-0.23438 0.74219-0.36328 1.5312-0.36328 2.3516v5.4531c-0.60156 0.42578-1.5898 1.1016-2.7148 1.7773l-1.7617-5.2891c1.3242-1.3086 3.0938-2.9531 4.8398-4.293zm-4.4414-18.898c0.85547-0.41406 1.7695-0.625 2.7109-0.625 2.3867 0 4.5977 1.3867 5.6328 3.5352l1.3594 2.8125c0.66016 1.3672 0.79688 2.8906 0.40625 4.3438l-1.6445-0.80469c0.19922-0.92969 0.28516-2.1719-0.21094-3.3516-0.34375-0.82031-1.1133-1.9258-2.8242-2.5312-0.92187-0.32812-1.8438-0.21484-2.5898 0.3125-0.16406 0.11719-0.31641 0.25-0.45312 0.39844-0.20312-0.35156-0.53906-0.61328-0.9375-0.72266-0.49219-0.13672-1.0195-0.023438-1.4141 0.30469-1.0312 0.85547-1.3516 1.6602-1.5469 2.1406-0.015625 0.042969-0.039062 0.09375-0.054687 0.13672-0.65234 0.42188-1.2734 0.66016-1.8789 0.72656-0.44922-2.6758 0.88281-5.4414 3.4453-6.6758zm-1.5508 11.156-0.73438-1.5156c0.85156-0.20703 1.7031-0.59375 2.543-1.1523 0.11328-0.078125 0.21875-0.15625 0.30859-0.23828l0.47656 1.3516c0.25391 0.71875 0.98438 1.1484 1.7383 1.0234 0.75-0.12891 1.3008-0.77734 1.3008-1.5391 0-1.0039 0.22266-2.2109 0.47266-2.6914 0.55078 0.23047 0.73047 0.51953 0.81641 0.72656 0.32812 0.76562-0.058594 1.9531-0.21484 2.3047-0.35938 0.77344-0.035156 1.6914 0.73047 2.0625l2.6836 1.3086c-0.50391 0.51953-1.1016 0.95312-1.7734 1.2773-0.85547 0.41406-1.7695 0.625-2.7109 0.625-2.3906-0.007813-4.6016-1.3945-5.6367-3.543zm-21.66 2.2812h3.3047l15.195 12.156c0.54297 0.43359 1.2891 0.44922 1.8438 0.078125l1.6523 4.9531h-3.4336l-13.605-13.605c-0.29297-0.29297-0.69141-0.45703-1.1055-0.45703h-2.8711l-0.25781-0.085938c-0.039063-0.69141-0.53125-1.2969-1.2383-1.4453-0.17969-0.039062-0.36328-0.039062-0.53516-0.015625zm0.23437 6.1719c0.16016 0.054687 0.32813 0.078125 0.49219 0.078125h2.4766l10.156 10.156-0.78125 0.78125h-2.4766c-0.13281 0-0.26172 0.019531-0.38672 0.050781l-9.1094-1.1055c-0.27344-1.1758-0.98828-2.1875-1.9648-2.8398l1.4922-7.1562zm-8.4805 24.863c0 0.007813-0.003906 0.011719-0.003906 0.019532l-1.7734 8.5117-2.5898 1.293 1.4297-6.0742v-0.007812l3.4766-14.777c0.39844 0.52734 0.90625 0.96875 1.4883 1.293zm-7.5938 9.8945c-0.40234-0.53906-0.62109-1.1914-0.62109-1.8672 0-1.2148 0.69922-2.2695 1.7148-2.7852zm-11.234-25.012 16.645 2.0195-0.39844 1.6992-9.2852-0.85156c-1.1133-0.99219-2.5742-1.5977-4.1602-1.5977-1.1836 0-2.2969 0.33984-3.2461 0.92188l-1.6016-0.14844zm-8.375 15.344c0.59375-0.042969 1.1133-0.42188 1.332-0.97656 0.22266-0.55469 0.10938-1.1836-0.28906-1.6289-0.51953-0.57422-0.80469-1.3164-0.80469-2.0938 0-1.7227 1.4023-3.125 3.125-3.125 0.77344 0 1.5195 0.28516 2.0938 0.80469 0.44141 0.39844 1.0742 0.51172 1.6289 0.28906 0.55469-0.22266 0.93359-0.73828 0.97656-1.332 0.12109-1.6172 1.4883-2.8867 3.1133-2.8867s2.9922 1.2695 3.1133 2.8867c0.042969 0.59375 0.42188 1.1133 0.97656 1.332 0.55469 0.22266 1.1836 0.10938 1.6289-0.28906 0.57422-0.51953 1.3164-0.80469 2.0938-0.80469 1.7227 0 3.125 1.4023 3.125 3.125 0 0.77344-0.28516 1.5195-0.80469 2.0938-0.39844 0.44141-0.51172 1.0742-0.28906 1.6289 0.16406 0.41016 0.49219 0.72266 0.89062 0.875l-0.39453 1.6836c-3.168 0.30078-5.6523 2.9766-5.6523 6.2188 0 0.75781 0.13672 1.5 0.39844 2.1953-1.9648 0.96094-3.3477 2.9258-3.5078 5.1875-0.47656 0.27734-1.0195 0.42969-1.5781 0.42969-1.625 0-2.9922-1.2695-3.1133-2.8867-0.042969-0.59375-0.42188-1.1133-0.97656-1.332-0.55469-0.22266-1.1836-0.10938-1.6289 0.28906-0.57422 0.51953-1.3164 0.80469-2.0938 0.80469-1.7227 0-3.125-1.4023-3.125-3.125 0-0.39453 0.074219-0.78516 0.21875-1.1523 0.16406-0.41406 0.14453-0.87891-0.054688-1.2734-0.19922-0.39844-0.55859-0.69141-0.98828-0.80859-1.3555-0.37109-2.3008-1.6094-2.3008-3.0156 0-1.625 1.2695-2.9922 2.8867-3.1133zm15.902 21.176-0.039062 0.039062v-0.19141c0.015625 0.011719 0.035156 0.023438 0.050781 0.03125-0.003906 0.039063-0.007812 0.082032-0.011719 0.12109zm-11.508 6.1328c-0.44141-0.39844-1.0742-0.51172-1.6289-0.28906-0.55469 0.22266-0.93359 0.73828-0.97656 1.332-0.12109 1.6172-1.4883 2.8867-3.1133 2.8867s-2.9922-1.2695-3.1133-2.8867c-0.042969-0.59375-0.42188-1.1133-0.97656-1.332-0.55469-0.22266-1.1836-0.10938-1.6289 0.28906-0.57422 0.51953-1.3203 0.80469-2.0938 0.80469-1.7227 0-3.125-1.4023-3.125-3.125 0-0.39453 0.074219-0.78516 0.21875-1.1523 0.16406-0.41406 0.14453-0.87891-0.054688-1.2734-0.19922-0.39844-0.55859-0.69141-0.98828-0.80859-1.3555-0.37109-2.3008-1.6094-2.3008-3.0156 0-1.625 1.2695-2.9922 2.8867-3.1133 0.59375-0.042969 1.1133-0.42188 1.332-0.97656 0.22266-0.55469 0.10938-1.1836-0.28906-1.6289-0.51953-0.57422-0.80469-1.3203-0.80469-2.0938 0-1.7227 1.4023-3.125 3.125-3.125 0.77344 0 1.5195 0.28516 2.0938 0.80469 0.44141 0.39844 1.0742 0.51172 1.6289 0.28906 0.55469-0.22266 0.93359-0.73828 0.97656-1.332 0.007812-0.089844 0.019531-0.17969 0.035156-0.26953 0.44922 0.5 0.97656 0.92969 1.5703 1.2656-0.039063 0.26172-0.054688 0.53125-0.054688 0.80469 0 3.4453 2.8047 6.25 6.25 6.25 0.75781 0 1.5-0.13672 2.1953-0.39844 0.24609 0.50781 0.5625 0.97266 0.92969 1.3906v11.508c-0.77344 0-1.5195-0.28516-2.0938-0.80469zm8.8008 2.8242c-0.29297 0.29297-0.45703 0.69141-0.45703 1.1055v12.5c0 0.54688 0.09375 1.0742 0.26953 1.5625h-3.6602c0.17188-0.48828 0.26953-1.0156 0.26953-1.5625l-0.003906-25.203c0.5 0.13281 1.0234 0.20312 1.5625 0.20312 0.53125 0 1.0547-0.070312 1.5625-0.19922v6.4492c0 0.63281 0.37891 1.2031 0.96484 1.4453 0.19531 0.078126 0.39453 0.11719 0.59766 0.11719 0.40625 0 0.80469-0.16016 1.1055-0.45703l1.2266-1.2266c0.21094 0.38672 0.46484 0.74609 0.75 1.0781zm19.844-25.695c0.042969 0.59375 0.42188 1.1133 0.97656 1.332 0.55469 0.22266 1.1836 0.10938 1.6289-0.28906 0.57422-0.51953 1.3164-0.80469 2.0938-0.80469 1.7227 0 3.125 1.4023 3.125 3.125 0 0.77344-0.28516 1.5195-0.80469 2.0938-0.39844 0.44141-0.51172 1.0742-0.28906 1.6289 0.22266 0.55469 0.73828 0.93359 1.332 0.97656 1.6172 0.12109 2.8867 1.4883 2.8867 3.1133 0 1.4062-0.94531 2.6445-2.3008 3.0156-0.42969 0.11719-0.78906 0.41016-0.98828 0.80859-0.19922 0.39844-0.21875 0.86328-0.054688 1.2734 0.14453 0.36719 0.21875 0.75391 0.21875 1.1523 0 1.7227-1.4023 3.125-3.125 3.125-0.77344 0-1.5195-0.28516-2.0938-0.80469-0.44141-0.39844-1.0742-0.51172-1.6289-0.28906-0.55469 0.22266-0.93359 0.73828-0.97656 1.332-0.12109 1.6172-1.4883 2.8867-3.1133 2.8867s-2.9922-1.2695-3.1133-2.8867c-0.042969-0.59375-0.42188-1.1133-0.97656-1.332-0.55469-0.22266-1.1836-0.10938-1.6289 0.28906-0.57422 0.51953-1.3164 0.80469-2.0938 0.80469-1.7227 0-3.125-1.4023-3.125-3.125 0-0.39453 0.074219-0.78516 0.21875-1.1523 0.16406-0.41406 0.14453-0.87891-0.054688-1.2734-0.19922-0.39844-0.55859-0.69141-0.98828-0.80859-1.3555-0.37109-2.3008-1.6094-2.3008-3.0156 0-1.625 1.2695-2.9922 2.8867-3.1133 0.082031-0.007813 0.16406-0.019531 0.24219-0.039063-0.007812 0.48047 0.20312 0.94922 0.58984 1.2539 0.28125 0.22266 0.625 0.33594 0.96875 0.33594 0.23828 0 0.47656-0.054688 0.69922-0.16406l6.25-3.125c0.42578-0.21484 0.73438-0.60938 0.83203-1.0781l1.6914-8.125c1.582 0.046876 2.8984 1.293 3.0156 2.8789zm-1.5508-16.949c-0.86328 0-1.5625-0.69922-1.5625-1.5625s0.69922-1.5625 1.5625-1.5625 1.5625 0.69922 1.5625 1.5625-0.69922 1.5625-1.5625 1.5625zm14.219 2.0508 0.48828-0.48828h2.4805c0.41406 0 0.8125-0.16406 1.1055-0.45703l0.55469-0.55469c0.22266 0.59375 0.79297 1.0156 1.4648 1.0156h17.492l-0.29688 2.9688c-0.082031 0.82422-0.60156 1.707-1.5547 1.7188-1.0898-0.066406-21.734-4.2031-21.734-4.2031zm21.719 7.3242c2.4492 0 4.418-1.9062 4.6797-4.5312l1.5625-15.625c0.085937-0.85938-0.53906-1.625-1.3984-1.7109-0.85547-0.085937-1.625 0.53906-1.7109 1.3984l-0.95312 9.5312h-3.7422v-9.375c0-2.5859 2.1016-4.6875 4.6875-4.6875s4.6875 2.1016 4.6875 4.6875v25h-10.938v-5.1133c1.6367 0.25781 2.8125 0.42578 3.125 0.42578zm-1.0898 48.438 0.39453-0.26172c0.5-0.33203 0.76562-0.92578 0.67969-1.5195l-0.41406-2.9062h3.5547v4.6875zm4.3203-24c-0.070313 0.17969-0.10547 0.37109-0.10547 0.5625v15.625h-4l-2.25-15.734v-17.078h10.938v1.5625c0 2.3008-2.8125 10.461-4.582 15.062z"/>
<text x="0.0" y="117.5" font-size="5.0" font-weight="bold" font-family="Arbeit Regular, Helvetica, Arial-Unicode, Arial, Sans-serif" fill="#000000">Created by Trimanggolo Mulyo</text><text x="0.0" y="122.5" font-size="5.0" font-weight="bold" font-family="Arbeit Regular, Helvetica, Arial-Unicode, Arial, Sans-serif" fill="#000000">from Noun Project</text></svg>
