<svg xmlns="http://www.w3.org/2000/svg" version="1.1" viewBox="-5.0 -10.0 110.0 135.0">
 <path d="m89.301 19.027c-0.57812-0.76953-1.4922-1.2188-2.4531-1.2109h-3.3594v-3.7617c0-1.3008-0.72656-2.4883-1.8828-3.082-1.1562-0.58984-2.5469-0.48047-3.5977 0.28125-0.65625-0.79688-1.6328-1.2578-2.6641-1.2578s-2.0078 0.46094-2.6641 1.2578c-0.75781-0.55469-1.7109-0.76953-2.6367-0.60547-0.92578 0.16797-1.7422 0.70312-2.2617 1.4883-0.9375-0.58203-2.0977-0.67969-3.1172-0.26562-1.0195 0.41797-1.7812 1.293-2.0508 2.3633-5.2812-2.8008-11.176-4.2578-17.156-4.2344-8.707-0.078125-17.137 3.0508-23.684 8.7852-6.2227 5.3281-9.8398 13.086-9.9141 21.277v12.945h-0.70312c-0.29297 0-0.57422 0.11719-0.78516 0.32422-0.20703 0.21094-0.32422 0.49219-0.32422 0.78516v15.039c0 0.29297 0.11719 0.57812 0.32422 0.78516 0.21094 0.20703 0.49219 0.32422 0.78516 0.32422h3.3906v7.875l0.003906 0.003906c0.003907 4.7422 3.8477 8.5859 8.5898 8.5898h16.297c0.50781 1.9219 2.2461 3.2617 4.2344 3.2656h3.5703c2.4141 0 4.375-1.9609 4.375-4.375 0-2.418-1.9609-4.3789-4.375-4.3789h-3.5703c-1.9883 0.003906-3.7266 1.3438-4.2344 3.2656h-16.289c-3.5195-0.003907-6.3672-2.8516-6.3711-6.3672v-7.8789h2.5938c0.67578 3.7539 4.1016 6.3711 7.8984 6.0312 3.7969-0.33594 6.7109-3.5156 6.7109-7.3281v-14.656c-0.003907-4.0664-3.2969-7.3594-7.3633-7.3633-2.8516 0-5.4453 1.6484-6.6602 4.2266v-11.113c0-12.465 11.438-22.602 25.5-22.602v0.003906c6.1836-0.042969 12.199 2.0195 17.055 5.8477v8.8398c-0.003907 0.78125 0.15625 1.5508 0.47266 2.2617l1.6992 3.9062c0.19531 0.42969 0.29297 0.89844 0.28516 1.375v0.64453-0.003906c-0.95312 0.4375-1.5664 1.3867-1.5703 2.4375v4.2266c-3.6875 0.45703-6.4609 3.5898-6.4648 7.3086v14.656c0 3.8125 2.9102 6.9922 6.707 7.332 3.7969 0.33594 7.2266-2.2812 7.8984-6.0312h8.2109c0.29297 0 0.57812-0.11719 0.78516-0.32812 0.20703-0.20703 0.32422-0.48828 0.32422-0.78516v-15.035c0-0.29297-0.11719-0.57422-0.32422-0.78516-0.20703-0.20703-0.49219-0.32422-0.78516-0.32422h-0.69531v-2.2305h2.6836c1.4805-0.003906 2.6797-1.1992 2.6836-2.6758v-5.332c-0.003906-1.0508-0.61719-2.0039-1.5703-2.4375v-3.8438c-0.007812-0.55469 0.125-1.1016 0.39063-1.5898l2.7266-5.2227c0.46484-0.90234 0.99219-1.7695 1.5703-2.6016 1.1367-1.6094 1.918-3.4375 2.3008-5.3672 0.25781-0.92578 0.054687-1.9219-0.53906-2.6797zm-45.629 64.441h3.5703c1.1875 0 2.1523 0.96484 2.1523 2.1562 0 1.1875-0.96484 2.1523-2.1523 2.1523h-3.5703c-1.1914 0-2.1562-0.96484-2.1562-2.1523 0-1.1914 0.96484-2.1562 2.1562-2.1562zm-12.418-31.375c0.33203 0.69141 0.5 1.4492 0.5 2.2188v14.652c0 0.76562-0.16797 1.5273-0.5 2.2188-2.6875-2.4297-4.1641-5.9258-4.0352-9.5469-0.12891-3.6211 1.3477-7.1133 4.0352-9.543zm-9.7773 2.2188c0-1.9922 1.1445-3.8008 2.9453-4.6523 1.7969-0.84766 3.9258-0.58203 5.4609 0.68359-3.2227 2.8516-5.0117 6.9922-4.8828 11.293-0.12891 4.3047 1.6641 8.4414 4.8867 11.293-1.5352 1.2656-3.6641 1.5312-5.4609 0.68359-1.8008-0.84766-2.9453-2.6602-2.9453-4.6484zm-9.1992 0.91797h6.9805v12.816h-6.9805zm33.18-39.992c-7.1797-0.0625-14.133 2.5156-19.531 7.25-5.1406 4.4023-8.125 10.809-8.1914 17.574v12.945h-3.6562v-12.945c0-15.352 14.074-27.844 31.375-27.844l0.003906 0.003906c5.9805-0.023437 11.867 1.5312 17.055 4.5078v3.8008-0.003906c-5.0039-3.4727-10.961-5.3203-17.055-5.2891zm14.199 55.945c-0.33203-0.69141-0.50391-1.4531-0.5-2.2188v-14.652c-0.003906-0.76953 0.16797-1.5273 0.5-2.2188 2.6875 2.4297 4.1641 5.9219 4.0352 9.543 0.12891 3.6211-1.3438 7.1172-4.0312 9.5469zm9.7773-2.2188c0 1.9883-1.1484 3.8008-2.9453 4.6484-1.8008 0.84766-3.9258 0.58203-5.4609-0.68359 3.2227-2.8516 5.0156-6.9883 4.8867-11.293 0.12891-4.3008-1.6641-8.4414-4.8867-11.293 0.74609-0.61719 1.6562-1.0078 2.6172-1.1289 0.4375 0.94922 1.3867 1.5586 2.4336 1.5625h1.9336c0.91016 0.95312 1.418 2.2188 1.4219 3.5352zm1.3086-18.188h0.21094v0.41406c-0.0625-0.14062-0.13281-0.27734-0.21094-0.41406zm7.8945 17.27h-6.9805v-12.816h6.9805zm-1.8047-15.039h-3.6523v-2.2305h3.6523zm5.3672-4.9062c-0.003907 0.25-0.20703 0.45313-0.45703 0.45703h-15.66c-0.25391-0.003906-0.45703-0.20703-0.46094-0.45703v-5.332c0.003906-0.25391 0.20703-0.45703 0.46094-0.46094h15.656c0.25391 0.003906 0.45703 0.20703 0.46094 0.46094zm5.4922-26.961c-0.32031 1.6875-0.99609 3.2852-1.9844 4.6875-0.62891 0.89844-1.1992 1.8398-1.707 2.8164l-2.7266 5.2227c-0.42969 0.80859-0.65234 1.707-0.64453 2.6211v3.6016h-13.438v-0.39844c0.007813-0.78125-0.15234-1.5508-0.46875-2.2617l-1.6992-3.9062c-0.19531-0.43359-0.29297-0.89844-0.28906-1.375v-17.07c0-0.68359 0.55469-1.2344 1.2344-1.2344s1.2344 0.55078 1.2344 1.2344c0 0.61328 0.49609 1.1094 1.1094 1.1094s1.1133-0.49609 1.1133-1.1094c0-0.22266-0.023437-0.44141-0.066406-0.65625 0.042969-0.12109 0.0625-0.24219 0.066406-0.36719 0-0.68359 0.55078-1.2344 1.2305-1.2344 0.68359 0 1.2344 0.55078 1.2344 1.2344 0 0.61328 0.49609 1.1094 1.1094 1.1094s1.1133-0.49609 1.1133-1.1094c0-0.12891-0.007812-0.25781-0.023437-0.38281 0.015625-0.070313 0.023437-0.14453 0.023437-0.21875 0.019531-0.66406 0.5625-1.1953 1.2305-1.1953s1.2148 0.53125 1.2344 1.1953v0.60156c0 0.61328 0.5 1.1094 1.1133 1.1094 0.61328 0 1.1094-0.49609 1.1094-1.1094 0-0.67969 0.55078-1.2344 1.2344-1.2344 0.67969 0 1.2305 0.55469 1.2305 1.2344v7.9844c0 0.61328 0.5 1.1133 1.1133 1.1133 0.61328 0 1.1094-0.5 1.1094-1.1133v-2h3.3633c0.27344 0 0.52734 0.12891 0.69141 0.34375 0.16797 0.21484 0.22266 0.49609 0.14844 0.75781zm-28.047 19.938v-12.355c-0.003906-2.5703-2.0859-4.6562-4.6602-4.6602h-22.078c-2.5703 0.003906-4.6562 2.0898-4.6602 4.6602v12.355c0.003906 2.5703 2.0898 4.6523 4.6602 4.6562h8.4336l12.059 6.9648c0.34375 0.19922 0.76953 0.19922 1.1133 0s0.55469-0.5625 0.55469-0.96094v-6c2.543-0.046875 4.5742-2.1211 4.5781-4.6602zm-5.6836 2.4375v-0.003906c-0.61328 0.003906-1.1133 0.5-1.1133 1.1133v5.1914l-10.656-6.1562c-0.16797-0.09375-0.35938-0.14844-0.55469-0.14844h-8.7305c-1.3438 0-2.4336-1.0898-2.4375-2.4336v-12.355c0.003906-1.3438 1.0938-2.4336 2.4375-2.4375h22.078c1.3477 0.003906 2.4375 1.0938 2.4375 2.4375v12.355c0 1.3438-1.0898 2.4336-2.4375 2.4336zm-0.39453-12.199v-0.003906c0 0.61328-0.49609 1.1133-1.1133 1.1133h-17.016c-0.60156-0.019531-1.0781-0.51172-1.0781-1.1133s0.47656-1.0938 1.0781-1.1133h17.016c0.29688 0 0.57812 0.11719 0.78906 0.32812 0.20703 0.20703 0.32422 0.49219 0.32422 0.78516zm0 7.4141v-0.003907c0 0.61328-0.49609 1.1133-1.1133 1.1133h-17.016c-0.61328 0-1.1133-0.5-1.1133-1.1133 0-0.61328 0.5-1.1094 1.1133-1.1094h17.016c0.29688 0 0.57812 0.11719 0.78906 0.32422 0.20703 0.21094 0.32422 0.49219 0.32422 0.78906z"/>
<text x="0.0" y="117.5" font-size="5.0" font-weight="bold" font-family="Arbeit Regular, Helvetica, Arial-Unicode, Arial, Sans-serif" fill="#000000">Created by kholifah</text><text x="0.0" y="122.5" font-size="5.0" font-weight="bold" font-family="Arbeit Regular, Helvetica, Arial-Unicode, Arial, Sans-serif" fill="#000000">from Noun Project</text></svg>
