<svg xmlns="http://www.w3.org/2000/svg" viewBox="0 0 28 35" x="0px" y="0px"><title>photo</title><g data-name="Layer 2"><path d="M25.814,11.637a1.476,1.476,0,0,0-1.514.1l-3.8,2.709V12.937A2.439,2.439,0,0,0,18.063,10.5h-.269a4.489,4.489,0,1,0-6.957-5.2,3.991,3.991,0,1,0-5.955,5.2H3.937A2.439,2.439,0,0,0,1.5,12.937V23.063A2.439,2.439,0,0,0,3.937,25.5H18.063A2.439,2.439,0,0,0,20.5,23.063V21.525l1.132.807a.489.489,0,0,0,.183.131L24.3,24.235a1.446,1.446,0,0,0,.839.265,1.47,1.47,0,0,0,.675-.163,1.2,1.2,0,0,0,.686-1.074V12.711A1.2,1.2,0,0,0,25.814,11.637ZM15,3.5A3.5,3.5,0,1,1,11.5,7,3.5,3.5,0,0,1,15,3.5Zm-2.794,7H10.118A4.011,4.011,0,0,0,11.1,9.207,4.5,4.5,0,0,0,12.206,10.5ZM4.5,7.5a3,3,0,1,1,3,3A3,3,0,0,1,4.5,7.5Zm15,15.563A1.439,1.439,0,0,1,18.063,24.5H3.937A1.439,1.439,0,0,1,2.5,23.063V12.937A1.439,1.439,0,0,1,3.937,11.5H18.063A1.439,1.439,0,0,1,19.5,12.937Zm1-7.386,1-.713V21.01l-1-.714Zm5,7.586a.231.231,0,0,1-.143.185.471.471,0,0,1-.476-.027l-2.381-1.7V14.251l2.381-1.7a.471.471,0,0,1,.476-.027.231.231,0,0,1,.143.185Z"/><path d="M7.5,5.833A1.667,1.667,0,1,0,9.167,7.5,1.669,1.669,0,0,0,7.5,5.833Zm0,2.334A.667.667,0,1,1,8.167,7.5.667.667,0,0,1,7.5,8.167Z"/><path d="M15,9.214A2.214,2.214,0,1,0,12.786,7,2.216,2.216,0,0,0,15,9.214Zm0-3.428A1.214,1.214,0,1,1,13.786,7,1.216,1.216,0,0,1,15,5.786Z"/><path d="M13.279,18.5H5.721A1.223,1.223,0,0,0,4.5,19.721v1.558A1.223,1.223,0,0,0,5.721,22.5h7.558A1.223,1.223,0,0,0,14.5,21.279V19.721A1.223,1.223,0,0,0,13.279,18.5Zm.221,2.779a.221.221,0,0,1-.221.221H5.721a.221.221,0,0,1-.221-.221V19.721a.221.221,0,0,1,.221-.221h7.558a.221.221,0,0,1,.221.221Z"/><path d="M16.572,13.5H15.428a.929.929,0,0,0-.928.928v1.144a.929.929,0,0,0,.928.928h1.144a.929.929,0,0,0,.928-.928V14.428A.929.929,0,0,0,16.572,13.5Zm-.072,2h-1v-1h1Z"/><path d="M12,16.5A1.5,1.5,0,1,0,10.5,15,1.5,1.5,0,0,0,12,16.5Zm0-2a.5.5,0,1,1-.5.5A.5.5,0,0,1,12,14.5Z"/></g><text x="0" y="43" fill="#000000" font-size="5px" font-weight="bold" font-family="'Helvetica Neue', Helvetica, Arial-Unicode, Arial, Sans-serif">Created by Ilham Fitrotul Hayat</text><text x="0" y="48" fill="#000000" font-size="5px" font-weight="bold" font-family="'Helvetica Neue', Helvetica, Arial-Unicode, Arial, Sans-serif">from the Noun Project</text></svg>