<svg xmlns="http://www.w3.org/2000/svg" version="1.1" viewBox="-5.0 -10.0 110.0 135.0">
 <path d="m22.875 72.363-1.3008 0.14453c-0.33203 0.035157-8.1836 0.96484-11.816 6.4297-3.6289 5.4648-1.4414 13.062-1.3477 13.387l0.36719 1.2539 1.3008-0.14453c0.33203-0.035156 8.1875-0.96484 11.816-6.4297 3.6289-5.4648 1.4453-13.066 1.3516-13.387zm-3.5742 12.91c-2.0312 3.0586-6.0742 4.332-8.1914 4.8047-0.38672-2.1328-0.78125-6.3359 1.2578-9.4102 2.0391-3.0742 6.0742-4.3281 8.1953-4.8047 0.38281 2.1367 0.77344 6.3359-1.2617 9.4102zm2.6602-53.848c-2.2266-1.5586-5.0508-1.9922-7.6445-1.168-0.90234 0.32813-1.7422 0.82031-2.4688 1.4492l-1.3086-3.8633c-0.27344-0.81641-1.1602-1.2578-1.9805-0.98047-0.81641 0.27734-1.2539 1.1641-0.98047 1.9805l1.3086 3.8633c-0.96094-0.058593-1.9258 0.058594-2.8438 0.34766-2.5586 0.91797-4.543 2.9766-5.3633 5.5703-0.92969 2.7773-0.90625 5.7852 0.074218 8.5469 1.7227 5.082 5.9844 8.4297 10.238 8.4297 0.86328 0 1.7188-0.14062 2.5352-0.41797 1.4688-0.5 2.7578-1.4141 3.7227-2.6289 1.5039 0.37891 3.082 0.31641 4.5508-0.17578 2.5586-0.91797 4.5391-2.9766 5.3594-5.5703 1.8242-5.7109-0.28516-11.949-5.1992-15.383zm2.2578 14.34c-0.50781 1.6836-1.7734 3.0352-3.418 3.6562-1.1836 0.375-2.4609 0.32031-3.6094-0.15625l-1.2148-0.47266-0.67578 1.1133c-0.62109 1.0742-1.6055 1.8945-2.7734 2.3125-3.3555 1.1406-7.3008-1.582-8.8125-6.0469-0.75391-2.0977-0.78516-4.3828-0.085938-6.5 0.50781-1.6836 1.7695-3.0352 3.418-3.6523 0.49219-0.16797 1.0117-0.25391 1.5312-0.25 0.71094 0.003907 1.4141 0.14062 2.0781 0.39844l1.2148 0.46875 0.67969-1.1094c0.62109-1.0742 1.6016-1.8945 2.7695-2.3125 1.6836-0.50391 3.5078-0.19922 4.9375 0.82812 3.707 2.6445 5.3047 7.3672 3.9609 11.723zm74.82-7.3203-1.543-2.1992 1.125-0.78906-0.003906-0.003906c0.70703-0.49609 0.87891-1.4688 0.37891-2.1758-0.49609-0.70703-1.4727-0.875-2.1758-0.37891l-1.125 0.78906-1.543-2.1992v-0.003906c-0.8125-1.1641-2.0586-1.9531-3.4609-2.1836-1.3711-0.24219-2.7852 0.085938-3.9141 0.91016-1.1523 0.80078-1.9375 2.0312-2.1836 3.4102-0.25781 1.3867 0.054688 2.8164 0.87109 3.9648l1.543 2.1992-8.4219 5.918-1.543-2.1992c-0.80469-1.1484-2.0312-1.9336-3.4141-2.1797-1.3867-0.25781-2.8164 0.054687-3.9648 0.86719-1.1523 0.80078-1.9375 2.0273-2.1836 3.4102-0.25781 1.3828 0.054687 2.8125 0.86719 3.9648l1.5508 2.2109-1.1055 0.78906c-0.70312 0.5-0.86719 1.4766-0.36719 2.1758 0.5 0.70312 1.4766 0.86719 2.1797 0.36719l1.0898-0.77734 1.5664 2.2305 0.003906 0.003906c0.79688 1.1719 2.0352 1.9766 3.4297 2.2305 1.3945 0.25391 2.8359-0.066406 3.9961-0.88281 1.1602-0.81641 1.9414-2.0664 2.1719-3.4688 0.23438-1.3984-0.10938-2.832-0.94531-3.9805l-1.543-2.1992 8.4258-5.918 1.5547 2.2188c1.0156 1.3945 2.6367 2.2188 4.3633 2.2148 1.9766 0.003906 3.7891-1.0977 4.6992-2.8516 0.90625-1.7578 0.76172-3.8711-0.38281-5.4844zm-20.188 16.84c-0.98047 0.69141-2.3359 0.46094-3.0312-0.51562l-4.9141-7c-0.33203-0.46875-0.45703-1.0508-0.35156-1.6133 0.10156-0.57031 0.42578-1.082 0.89844-1.4141 0.35938-0.25 0.78516-0.38672 1.2227-0.38672 0.13281 0 0.26562 0.011719 0.39453 0.035156 0.57031 0.10156 1.0781 0.42578 1.4141 0.90234l4.875 6.9609-0.003906-0.003906c0.33594 0.46875 0.47266 1.0547 0.37891 1.625-0.097656 0.56641-0.41406 1.0742-0.88281 1.4102zm17.113-12.02c-0.99609 0.68359-2.3477 0.45312-3.0664-0.51562l-2.4336-3.4727v-0.007813l-0.007813-0.007812-2.4375-3.4727c-0.32812-0.46875-0.45703-1.0508-0.35156-1.6133 0.10547-0.57812 0.4375-1.0938 0.92188-1.4258 0.35938-0.26172 0.79297-0.39844 1.2344-0.39844 0.11719 0 0.23438 0.007813 0.35156 0.03125 0.57812 0.09375 1.0898 0.41797 1.4258 0.89844l4.875 6.9531c0.69141 0.98047 0.46484 2.3359-0.51172 3.0312zm-20.977 35.602c-5.2383-2.4648-9.5625-6.7539-12.801-12.629-1.8867-4.2109-3.9609-13.969-3.9883-13.969l-0.48438-20.75h0.003906c2.9414-1.1641 5.6992-2.75 8.1914-4.6992 0.046875-0.035156 0.09375-0.070312 0.13672-0.10547 5.6367-4.5664 10.285-10.23 13.668-16.652 1.25-2.6055 0.17969-5.7344-2.4062-7.0312-2.5898-1.293-5.7344-0.27344-7.0742 2.2891-2.6523 4.9062-6.2227 9.2578-10.52 12.816-1.8906 0.69922-3.8438 1.2227-5.832 1.5625-0.40625-0.34375-0.83594-0.65625-1.2891-0.93359 0.65625-0.38281 1.2695-0.83594 1.8242-1.3555 1.9375-1.8516 3.0625-4.3945 3.125-7.0742 0.058593-2.6758-0.94531-5.2695-2.7969-7.207-2.8203-2.9531-7.1406-3.918-10.949-2.4414s-6.3555 5.0977-6.4492 9.1797c-0.070312 2.6836 0.9375 5.2773 2.793 7.2109 0.5 0.51953 1.0508 0.98047 1.6484 1.3828-0.50781 0.28906-0.98828 0.62109-1.4414 0.98828-2.0625-0.30078-4.0391-1.0352-5.793-2.1602-3.5156-3.1484-5.8828-7.3789-6.7305-12.02-0.33984-2.9102-2.9727-4.9961-5.8828-4.6523-2.9102 0.33984-4.9922 2.9727-4.6523 5.8828 0.21484 1.8633 2.5586 18.121 19.086 24.973l0.50391 21.227-0.019531 0.51562c-0.33594 9.0859-0.42969 15.301-0.26172 18.016-0.007812 7.668 1.9102 15.219 5.5781 21.953 0.042969 0.09375 0.09375 0.17969 0.15234 0.26172 0.90234 1.5859 1.9219 3.1055 3.0469 4.543 1.8203 2.2969 5.1562 2.6797 7.4492 0.85938 1.1016-0.87109 1.8086-2.1484 1.9727-3.5469 0.16016-1.3945-0.24219-2.8008-1.1133-3.9023-2.7031-3.5078-4.5742-7.5898-5.4688-11.926-0.16406-4.2773 0-8.5586 0.48438-12.812 2.2852 4.2305 5.2188 8.0703 8.6953 11.391 2.0742 2.5469 4.4609 4.8242 7.1055 6.7734 0.09375 0.089843 0.19922 0.16406 0.31641 0.22656 1.7734 1.3125 3.668 2.4531 5.6602 3.4102 0.70703 0.33203 1.4766 0.5 2.2578 0.5h0.015625c2.0469-0.015626 3.9023-1.1992 4.7812-3.043 0.59766-1.2734 0.66797-2.7305 0.19141-4.0547-0.47656-1.3242-1.4609-2.4062-2.7344-3.0039zm-1.9688-72.133c0.53516-1.0781 1.8438-1.5156 2.9219-0.98047 1.0742 0.53516 1.5156 1.8438 0.98047 2.9219-2.8359 5.3789-6.6133 10.207-11.152 14.254-0.69531-1.3281-1.6055-2.5312-2.6914-3.5664 3.9922-3.6289 7.3555-7.8945 9.9414-12.629zm-32.555 3.1992h0.003906c0.085938-3.7852 3.1797-6.8125 6.9688-6.8125h0.16406c2.8203 0.066406 5.3242 1.8242 6.3438 4.4531 1.0195 2.6328 0.35547 5.6172-1.6836 7.5664-1.3477 1.2695-3.1328 1.9609-4.9805 1.9258-1.8516-0.039062-3.6094-0.81641-4.8867-2.1523-1.2773-1.3398-1.9727-3.1328-1.9258-4.9805zm-14.641 9.3984 0.003906 0.003907c-2.8281-3.9102-4.6914-8.4336-5.4336-13.199-0.12891-1.1914 0.73047-2.2617 1.918-2.4023 0.085938-0.007813 0.16797-0.015625 0.25-0.015625 1.0977 0.019531 2.0195 0.83594 2.1641 1.9258 0.63281 3.582 2.0703 6.9766 4.1992 9.9297-1.1992 1.1094-2.2383 2.375-3.0977 3.7656zm12.633 9.5938 0.007813 0.003907c-4.0078-1.4922-7.6094-3.9062-10.516-7.0469 0.77734-1.4414 1.7695-2.75 2.9492-3.8828 0.53906 0.60547 1.1094 1.1797 1.7109 1.7266 2.4023 1.6133 5.1602 2.6172 8.0391 2.9219l0.72266 0.085937 0.53125-0.5c1.4023-1.3477 3.2852-2.082 5.2266-2.0391 1.9453 0.042969 3.793 0.85547 5.1367 2.2617l0.5625 0.57031 0.78906-0.12109c2.3281-0.36328 4.6211-0.94531 6.8438-1.7383 1.2031 1.0234 2.1523 2.3125 2.7695 3.7695-2.3203 1.707-4.8828 3.0586-7.6016 4.0078l-1.0898 0.36719 0.51172 20.965c-5.582-1.168-11.961-0.16797-15.09 0.48828l-0.51172-21.465zm12.777 64.418c0.74609 0.94141 0.58594 2.3086-0.35156 3.0586-0.94922 0.71875-2.3008 0.5625-3.0586-0.35156-0.58203-0.73438-1.125-1.5-1.6445-2.2812l-0.003907-0.003906c1.4766-0.30859 2.875-0.91797 4.1094-1.7891 0.31641 0.45313 0.60938 0.93359 0.94922 1.3672zm14.34-11.562v-0.003906c-2.125-1.6797-4.0586-3.5898-5.7578-5.6992l-0.38281-0.36328c-4.207-4.1172-7.5703-9.0156-9.9023-14.422l-1.6719-3.7812-1.25 3.9414c-1.8867 5.9492-1.6016 16.152-1.4883 18.406 0.69922 3.3125 1.8828 6.5 3.5078 9.4688-1.2266 0.89844-2.6836 1.4336-4.1992 1.5352-3.1211-6.1562-4.7383-12.961-4.7266-19.863-0.10156-1.7539-0.13672-6.1719 0.25781-17.027 2.6992-0.60156 9.8203-1.8984 15.348-0.41406 0.57812 2.6211 2.3281 10.172 4.082 14.074 2.2148 4.1523 5.2539 7.8125 8.9297 10.75-0.62109 1.3398-1.5625 2.5078-2.7461 3.3945zm9.125 2.8086c-0.35938 0.75781-1.1211 1.2461-1.9609 1.2539-0.32812 0.03125-0.65625-0.042969-0.9375-0.21094-1.2344-0.58594-2.4336-1.25-3.5859-1.9883 1.1016-0.98047 2.0156-2.1523 2.6992-3.457 0.88672 0.55469 1.8008 1.0586 2.7422 1.5078 1.0859 0.51172 1.5547 1.8047 1.043 2.8945z"/>

    <text x="0.0" y="117.5" font-size="5.0" font-weight="bold" font-family="Arbeit Regular, Helvetica, Arial-Unicode, Arial, Sans-serif" fill="#000000">by meilia miftah choirun niswah</text><text x="0.0" y="122.5" font-size="5.0" font-weight="bold" font-family="Arbeit Regular, Helvetica, Arial-Unicode, Arial, Sans-serif" fill="#000000">from Noun Project</text></svg>
